<?xml version="1.0" standalone="no"?>
<!DOCTYPE svg PUBLIC "-//W3C//DTD SVG 20010904//EN"
 "http://www.w3.org/TR/2001/REC-SVG-20010904/DTD/svg10.dtd">
<svg version="1.0" xmlns="http://www.w3.org/2000/svg"
 width="260.000000pt" height="260.000000pt" viewBox="0 0 260.000000 260.000000"
 preserveAspectRatio="xMidYMid meet">
<metadata>
Created by potrace 1.14, written by Peter Selinger 2001-2017
</metadata>
<g transform="translate(0.000000,260.000000) scale(0.100000,-0.100000)"
fill="#000000" stroke="none">
<path d="M2040 2283 c0 -11 25 -35 50 -48 8 -4 6 1 -5 11 -11 10 -26 25 -32
33 -7 8 -13 10 -13 4z"/>
<path d="M2074 2217 c3 -10 6 -28 6 -39 0 -19 1 -19 20 5 24 31 25 41 3 33 -9
-4 -21 -1 -26 6 -6 9 -7 8 -3 -5z"/>
<path d="M2035 2132 c15 -23 30 -40 32 -38 7 7 -13 39 -38 61 -19 17 -18 14 6
-23z"/>
<path d="M2080 2109 c0 -13 5 -31 10 -39 7 -11 8 -5 4 20 -8 43 -14 51 -14 19z"/>
<path d="M1515 2104 c11 -9 40 -27 65 -42 118 -68 293 -184 333 -220 15 -14
27 -20 27 -13 0 8 7 10 23 5 29 -9 40 -28 21 -34 -13 -5 -12 -10 5 -32 19 -24
21 -37 17 -169 -2 -79 -4 -172 -5 -207 -1 -93 -21 -75 -43 39 -19 103 -33 143
-47 134 -5 -3 -19 20 -30 51 -12 30 -37 88 -55 127 -35 74 -94 178 -81 142 43
-115 56 -158 66 -220 6 -40 9 -79 6 -86 -3 -8 -6 -4 -6 9 -1 12 -5 22 -11 22
-12 0 -12 -1 5 -80 34 -155 4 -155 -39 -1 -15 51 -39 117 -54 145 -23 42 -33
51 -59 53 l-30 3 14 -53 c8 -28 17 -83 21 -122 7 -68 7 -69 12 -25 l6 45 12
-43 c7 -24 16 -50 19 -58 3 -8 -1 -14 -10 -14 -8 0 -18 6 -20 13 -4 10 -6 10
-6 0 -1 -20 -39 -15 -44 5 -3 9 -18 68 -33 130 -29 115 -35 123 -75 101 -17
-9 -19 -18 -15 -67 3 -31 8 -98 11 -148 3 -51 8 -99 11 -108 8 -20 -4 -69 -15
-62 -5 3 -14 27 -21 53 -7 27 -35 105 -62 176 -41 104 -54 127 -70 127 -21 0
-21 -8 -2 -84 11 -44 -11 -29 -36 24 -18 38 -29 50 -46 50 -30 0 -41 20 -15
27 22 6 27 18 12 27 -5 4 -11 0 -14 -6 -2 -7 -8 -10 -12 -6 -10 9 -33 162 -42
267 -9 115 -22 63 -25 -106 -2 -116 0 -154 11 -166 10 -13 11 -20 2 -30 -8
-10 -8 -35 -1 -88 5 -41 9 -87 9 -104 l-1 -30 -9 30 c-6 17 -18 66 -28 109
-23 108 -46 117 -37 15 11 -117 46 -250 100 -384 l16 -40 -31 35 c-37 42 -128
176 -140 207 -5 14 -4 23 4 27 8 3 5 11 -10 23 -16 13 -26 40 -36 96 -8 43
-18 81 -22 85 -4 4 -5 -30 -3 -76 3 -46 1 -85 -4 -88 -5 -3 -3 -13 5 -22 14
-17 42 -160 33 -169 -7 -7 -55 154 -67 227 -6 36 -18 70 -26 77 -13 10 -15 37
-11 172 2 88 0 155 -4 148 -4 -7 -8 -20 -8 -29 0 -10 -6 -18 -13 -18 -8 0 -20
-12 -27 -27 -24 -52 -60 -166 -60 -190 0 -14 -5 -33 -11 -44 -6 -11 -13 -48
-17 -81 -4 -39 -12 -63 -21 -66 -11 -4 -13 8 -9 62 3 36 2 66 -2 66 -18 0 -40
-33 -40 -60 0 -16 -4 -31 -10 -35 -5 -3 -10 26 -12 72 l-3 78 -19 -100 c-10
-55 -22 -110 -27 -123 -16 -40 -26 -15 -18 40 5 29 11 78 14 108 6 63 57 268
80 324 9 21 14 40 12 42 -2 2 -16 -29 -32 -68 -15 -40 -38 -95 -50 -123 -48
-106 -60 -152 -45 -170 12 -15 11 -19 -7 -33 -12 -10 -26 -33 -31 -52 l-10
-35 -1 38 c-1 34 -4 38 -23 35 -20 -3 -24 -11 -30 -58 -3 -30 -6 -85 -7 -122
-1 -37 -5 -70 -11 -73 -6 -4 -10 8 -10 28 0 19 -7 51 -15 70 -8 20 -15 54 -15
76 0 67 -18 56 -26 -16 -22 -212 24 -509 104 -671 35 -70 171 -276 178 -269 3
3 -10 27 -29 54 -50 69 -81 135 -127 268 -47 138 -50 162 -10 82 16 -31 27
-64 24 -72 -4 -8 -1 -15 6 -15 7 0 19 -8 27 -18 13 -16 14 -15 10 5 -6 27 9
30 36 5 19 -17 19 -16 13 33 -4 34 -1 60 8 80 l14 30 1 -52 c1 -28 6 -55 11
-58 6 -3 10 -1 10 4 0 6 11 11 25 11 20 0 25 -5 25 -25 0 -20 -5 -25 -25 -25
-14 0 -25 -5 -25 -10 0 -21 43 -94 71 -122 l28 -29 85 28 85 27 12 56 c6 30 9
85 6 123 -4 41 -2 65 4 62 5 -4 9 0 9 9 0 8 5 16 11 18 8 3 3 17 -12 40 -25
39 -51 48 -143 48 l-49 0 6 133 c6 114 26 249 40 263 2 2 21 5 42 7 l38 2 23
-113 c13 -62 28 -121 33 -130 14 -23 13 -11 -4 87 -8 47 -12 87 -9 90 8 8 24
-21 24 -44 0 -31 63 -167 115 -250 25 -41 48 -75 51 -75 2 0 -6 24 -17 53 -35
87 -52 138 -46 143 3 3 22 -21 43 -52 22 -32 85 -100 141 -152 l103 -94 -34
73 c-57 123 -103 333 -120 539 -6 77 -3 70 55 -109 37 -116 140 -351 153 -351
2 0 -11 48 -30 108 -39 120 -58 201 -51 208 9 10 149 -288 144 -307 -3 -12 0
-19 9 -19 16 0 19 -16 4 -25 -5 -3 -10 -11 -10 -18 0 -8 3 -8 12 1 18 18 27
14 21 -10 -5 -20 0 -18 34 14 40 39 70 53 39 19 -24 -26 -45 -88 -46 -131 0
-26 3 -31 12 -22 17 17 55 15 62 -4 3 -8 1 -25 -5 -36 -9 -16 -17 -19 -45 -13
l-34 6 0 -79 0 -79 75 -22 c41 -12 94 -24 117 -27 l43 -5 49 100 c40 83 49
112 54 172 5 71 5 71 18 39 8 -18 14 -55 14 -82 l0 -49 27 20 c14 12 28 20 29
18 6 -5 -83 -222 -121 -296 -18 -36 -45 -83 -59 -104 -14 -20 -23 -37 -21 -37
7 0 74 75 103 113 29 40 29 17 0 -58 -39 -102 -92 -144 -353 -282 -104 -55
-119 -67 -40 -33 26 11 48 20 50 20 2 0 3 -29 2 -64 -2 -60 0 -66 28 -90 36
-31 98 -36 114 -9 10 17 10 17 11 1 0 -21 30 -24 48 -6 9 9 12 9 12 0 0 -54
62 58 148 263 88 213 138 387 152 525 38 399 38 685 0 845 -12 50 -24 100 -27
113 -8 33 22 18 37 -19 7 -16 17 -29 22 -29 10 0 3 29 -16 70 -7 14 -18 44
-26 67 -7 24 -23 50 -36 58 -13 8 -35 35 -49 60 -15 25 -32 45 -38 45 -7 0 -7
-4 1 -12 7 -7 12 -16 12 -21 0 -5 -21 9 -47 30 -74 60 -115 81 -53 27 105 -92
150 -141 150 -163 0 -15 -4 -20 -12 -14 -7 4 -47 30 -88 58 -70 46 -371 205
-388 205 -4 0 2 -8 13 -16z m-596 -555 c1 -44 0 -47 -29 -51 -35 -5 -35 -5
-16 71 32 128 28 122 37 71 4 -25 8 -66 8 -91z m394 -69 c48 -172 55 -212 22
-135 -42 98 -98 331 -66 275 5 -8 25 -71 44 -140z m297 -1 c0 -5 -4 -9 -10 -9
-5 0 -10 7 -10 16 0 8 5 12 10 9 6 -3 10 -10 10 -16z m170 -40 c0 -4 -7 -6
-15 -3 -8 4 -15 10 -15 15 0 4 7 6 15 3 8 -4 15 -10 15 -15z m-1001 -96 c0
-70 -3 -101 -9 -88 -12 29 -12 195 0 195 6 0 10 -42 9 -107z m859 -48 c6 -55
7 -103 4 -107 -4 -3 -18 -8 -32 -10 -18 -2 -24 1 -22 11 2 8 6 68 9 134 5 104
8 116 19 96 7 -14 17 -69 22 -124z m26 70 c4 -26 3 -52 -3 -62 -9 -15 -10 -13
-11 12 0 17 -3 48 -7 69 -4 26 -3 37 4 33 6 -4 14 -27 17 -52z m54 47 c12 -8
72 -226 72 -263 0 -20 -12 -23 -72 -13 l-36 6 -1 139 c-2 142 1 153 37 131z
m-1075 -152 c3 -69 1 -114 -3 -100 -8 24 -14 238 -6 229 2 -2 6 -60 9 -129z
m1190 33 c9 -131 9 -173 -1 -173 -10 0 -32 156 -32 224 0 32 4 46 13 46 10 0
16 -26 20 -97z m-1113 -155 l28 -89 -31 -13 c-29 -12 -33 -11 -41 8 -12 29
-20 268 -11 303 7 23 10 16 17 -46 5 -41 22 -115 38 -163z m1179 117 l8 -70 2
60 c2 41 5 54 10 40 10 -26 34 -236 27 -242 -3 -3 -23 8 -46 23 -40 28 -41 30
-36 73 4 24 6 87 7 140 1 108 12 98 28 -24z m-1145 -60 c5 -78 5 -79 -9 -40
-15 45 -20 144 -6 130 5 -6 12 -46 15 -90z m-140 10 c4 -36 15 -93 26 -128 25
-79 25 -81 -6 -102 -22 -14 -28 -15 -35 -4 -11 18 -12 299 0 299 4 0 11 -29
15 -65z m1036 -54 c0 -5 -16 -11 -35 -13 -24 -3 -35 0 -35 9 0 8 13 13 35 13
19 0 35 -4 35 -9z m340 -127 c0 -24 -4 -44 -9 -44 -13 0 -24 55 -16 80 10 33
25 12 25 -36z m45 -11 c-4 -38 -11 -75 -17 -83 -6 -10 -7 -4 -3 20 3 19 9 56
12 83 9 73 16 56 8 -20z m-335 -113 c0 -5 -4 -10 -9 -10 -6 0 -13 5 -16 10 -3
6 1 10 9 10 9 0 16 -4 16 -10z m295 -129 c-24 -73 -73 -167 -81 -158 -2 2 4
24 15 48 10 24 34 80 52 124 40 96 49 87 14 -14z m-1180 68 c-18 -5 -33 -5
-39 1 -7 7 4 10 30 9 39 -1 39 -1 9 -10z m135 -74 c0 -2 -13 -11 -30 -20 -39
-20 -130 -20 -156 1 -18 15 -18 15 11 9 74 -16 104 -16 131 -1 30 16 44 19 44
11z m689 -16 c34 -25 99 -35 140 -21 29 10 30 10 21 -8 -15 -27 -43 -33 -106
-20 -52 11 -94 38 -94 60 0 15 7 12 39 -11z m11 -699 c-6 -11 -13 -20 -16 -20
-2 0 0 9 6 20 6 11 13 20 16 20 2 0 0 -9 -6 -20z"/>
<path d="M1980 2041 c0 -21 48 -103 52 -90 3 8 9 11 13 7 4 -4 2 -14 -5 -23
-10 -13 -9 -15 7 -15 41 0 44 21 8 63 -38 44 -75 73 -75 58z"/>
<path d="M2314 2022 c-4 -12 -10 -20 -14 -17 -4 2 -5 -7 -2 -21 3 -17 9 -23
19 -20 8 3 18 6 22 6 12 0 7 48 -7 62 -10 10 -14 9 -18 -10z"/>
<path d="M2117 1980 c6 -46 13 -66 13 -37 0 22 46 33 67 16 14 -12 16 -12 11
1 -2 9 -21 17 -43 20 -26 3 -41 11 -46 25 -5 12 -6 1 -2 -25z"/>
<path d="M2385 1956 c15 -11 18 -25 17 -81 -3 -84 -20 -110 -70 -102 -19 4
-30 2 -27 -4 4 -5 12 -9 20 -9 16 0 26 -24 19 -47 -5 -14 -4 -15 4 -4 6 8 15
10 23 6 9 -6 11 -3 6 9 -7 19 8 56 23 56 4 0 14 -17 21 -37 6 -21 15 -42 19
-48 18 -25 38 -148 50 -316 8 -118 11 -128 42 -176 18 -27 38 -59 45 -69 10
-17 11 -17 6 5 -4 17 -3 22 5 17 7 -4 12 -5 12 -1 0 3 -24 79 -54 169 -30 90
-59 197 -65 237 -6 41 -13 90 -16 109 -6 33 -6 34 9 16 44 -55 -9 45 -58 109
-5 7 -6 20 -3 29 6 14 16 8 57 -36 l51 -53 -28 52 c-15 29 -30 47 -31 42 -6
-16 -32 11 -32 34 0 20 0 21 15 1 9 -10 1 9 -17 43 -18 35 -39 63 -47 63 -11
0 -10 -4 4 -14z m148 -658 c3 -21 2 -38 -4 -38 -5 0 -9 6 -9 14 0 7 -3 29 -6
47 -5 23 -3 31 3 24 6 -5 13 -27 16 -47z"/>
<path d="M2230 1929 c0 -5 5 -7 10 -4 6 3 10 8 10 11 0 2 -4 4 -10 4 -5 0 -10
-5 -10 -11z"/>
<path d="M2072 1917 c-6 -7 -10 -20 -8 -29 4 -28 40 -69 58 -66 9 2 24 -6 32
-17 15 -20 15 -20 10 2 -4 15 -1 22 13 25 15 4 13 7 -10 18 -19 9 -30 24 -35
44 -6 31 -6 31 -12 6 l-7 -25 -11 28 c-13 31 -15 32 -30 14z"/>
<path d="M1304 1823 c15 -81 27 -113 42 -113 11 0 14 5 9 18 -4 9 -16 43 -27
75 -23 65 -33 74 -24 20z"/>
<path d="M1510 1825 c0 -8 -4 -15 -10 -15 -16 0 -11 -47 6 -54 39 -15 44 -8
27 39 -15 46 -23 56 -23 30z"/>
<path d="M771 1784 c-22 -83 -33 -145 -27 -160 11 -28 26 -3 27 44 0 26 4 70
9 97 10 61 5 71 -9 19z"/>
<path d="M1610 1780 c0 -11 4 -20 9 -20 5 0 7 9 4 20 -3 11 -7 20 -9 20 -2 0
-4 -9 -4 -20z"/>
<path d="M2246 1785 c-3 -8 -15 -15 -26 -15 -22 0 -38 -26 -24 -40 5 -5 23 8
42 31 18 21 29 39 24 39 -6 0 -12 -7 -16 -15z"/>
<path d="M1123 1740 c0 -25 2 -35 4 -22 2 12 2 32 0 45 -2 12 -4 2 -4 -23z"/>
<path d="M562 1709 c-11 -31 -24 -73 -28 -93 -6 -33 -4 -38 12 -34 14 2 21 20
31 82 17 101 12 116 -15 45z"/>
<path d="M2256 1729 c5 -24 3 -26 -22 -21 -19 3 -25 1 -20 -7 4 -6 15 -11 24
-11 11 0 13 -3 5 -8 -8 -5 -9 -20 -1 -57 6 -29 10 -180 9 -365 -1 -281 -4
-332 -26 -470 -14 -85 -32 -177 -40 -204 -8 -27 -13 -51 -11 -54 10 -9 24 9
31 40 6 29 8 31 15 13 7 -16 9 -11 9 20 2 50 21 86 21 39 0 -47 -11 -94 -21
-88 -9 5 -11 -16 -10 -106 2 -80 12 -141 22 -134 5 3 9 19 9 35 0 17 5 39 11
50 17 33 66 219 80 303 13 84 27 83 28 -1 1 -24 5 -43 10 -43 5 0 17 -21 27
-47 38 -105 116 -282 153 -353 l40 -75 1 103 0 103 -55 114 c-47 96 -55 122
-55 169 0 31 -4 56 -10 56 -5 0 -10 24 -10 54 0 30 -4 57 -8 60 -5 3 -17 34
-26 70 -17 61 -17 71 -2 158 9 51 17 107 19 123 1 17 6 -8 11 -55 14 -141 19
-70 6 93 -12 161 -32 275 -57 339 -14 36 -14 40 2 58 23 26 16 54 -16 58 -22
3 -27 -2 -39 -40 -11 -39 -13 -41 -21 -20 -5 14 -20 25 -39 29 -26 5 -31 10
-29 32 2 14 -2 35 -9 46 -11 18 -12 18 -6 -6z m70 -283 c-8 -161 -24 -358 -32
-399 -11 -63 -27 -56 -20 9 27 262 30 402 10 515 l-6 34 27 -29 c26 -29 27
-31 21 -130z m56 92 c-9 -9 -12 -4 -11 23 0 32 1 33 11 11 8 -17 8 -26 0 -34z
m37 -258 c8 -168 5 -250 -8 -250 -20 0 -27 81 -23 265 5 241 20 234 31 -15z
m-79 -342 c0 -24 -9 -74 -20 -113 -22 -76 -21 -80 -4 88 7 74 24 91 24 25z"/>
<path d="M215 1709 c-9 -17 -15 -33 -13 -35 3 -2 12 12 21 31 21 43 13 47 -8
4z"/>
<path d="M2137 1723 c-18 -5 -18 -6 2 -19 23 -16 41 -11 41 12 0 14 -9 16 -43
7z"/>
<path d="M702 1680 c0 -14 2 -19 5 -12 2 6 2 18 0 25 -3 6 -5 1 -5 -13z"/>
<path d="M2100 1643 c0 -5 7 -62 15 -128 23 -194 15 -567 -16 -697 -6 -26 -9
-53 -7 -60 3 -7 13 30 24 82 l19 95 3 -70 c4 -88 -19 -213 -64 -352 -39 -120
-60 -155 -50 -83 5 34 -3 19 -32 -61 -21 -58 -69 -163 -105 -233 -37 -71 -67
-130 -67 -132 0 -2 30 -4 66 -4 60 0 66 2 72 23 3 12 30 69 60 127 79 154 144
424 167 700 9 107 -12 458 -35 565 -10 49 -24 123 -30 163 -7 39 -14 72 -16
72 -2 0 -4 -3 -4 -7z"/>
<path d="M2227 1460 c3 -30 7 -57 9 -59 9 -10 3 85 -6 99 -6 10 -7 -3 -3 -40z"/>
<path d="M288 1410 c-4 -14 -8 -41 -8 -60 0 -19 -4 -50 -10 -68 -5 -19 -10
-56 -11 -82 -2 -27 -6 -47 -10 -44 -15 9 -22 -47 -17 -154 5 -129 23 -173 98
-252 75 -80 104 -128 161 -274 65 -166 95 -226 175 -347 74 -112 93 -129 148
-129 l39 0 -84 87 c-109 114 -174 201 -215 288 -31 68 -59 153 -52 160 2 2 18
-7 35 -21 20 -16 37 -43 49 -77 39 -119 108 -230 238 -380 l49 -57 54 1 c54 2
55 3 71 43 l17 41 6 -30 c4 -19 7 2 8 56 l1 87 -100 43 c-117 52 -181 97 -225
159 -21 30 -42 48 -66 54 -72 21 -178 157 -179 229 l0 29 55 -47 c30 -26 71
-68 91 -95 34 -45 91 -94 159 -136 26 -16 25 -14 -8 18 -21 20 -40 36 -42 35
-8 -4 -62 54 -118 128 -147 194 -194 304 -241 565 -2 14 -4 -30 -3 -97 1 -67
1 -120 -1 -118 -1 1 -12 27 -24 56 -17 45 -22 84 -27 234 -3 103 -9 169 -13
155z m662 -1382 c0 -18 -17 -7 -29 19 -13 28 -13 28 8 9 12 -11 21 -23 21 -28z"/>
<path d="M137 1275 c-19 -100 -37 -265 -37 -332 0 -40 -4 -73 -8 -73 -9 0 -32
59 -32 83 0 29 -20 18 -27 -14 -3 -17 -11 -33 -18 -36 -9 -3 -12 -22 -11 -57
3 -70 12 -83 38 -59 21 18 21 18 15 -27 -4 -25 -9 -55 -13 -66 -5 -17 0 -24
25 -32 41 -14 46 -14 45 4 -1 8 2 14 6 14 10 0 38 -73 69 -175 33 -113 115
-269 218 -415 14 -19 33 -47 42 -62 12 -22 24 -28 50 -28 23 0 31 4 28 13 -97
221 -152 367 -182 477 -27 99 -59 192 -119 348 -40 102 -61 212 -74 372 -6 89
-9 99 -15 65z m-87 -435 c0 -5 -2 -10 -4 -10 -3 0 -8 5 -11 10 -3 6 -1 10 4
10 6 0 11 -4 11 -10z m50 -166 c0 -8 -4 -12 -10 -9 -5 3 -10 10 -10 16 0 5 5
9 10 9 6 0 10 -7 10 -16z"/>
<path d="M1001 1184 c0 -11 3 -14 6 -6 3 7 2 16 -1 19 -3 4 -6 -2 -5 -13z"/>
<path d="M903 1093 c9 -2 25 -2 35 0 9 3 1 5 -18 5 -19 0 -27 -2 -17 -5z"/>
<path d="M2082 715 c0 -16 2 -22 5 -12 2 9 2 23 0 30 -3 6 -5 -1 -5 -18z"/>
<path d="M110 618 c0 -20 -21 -28 -52 -22 -19 4 -20 3 -7 -5 25 -16 44 -70 30
-84 -6 -6 -11 -19 -11 -28 0 -9 -7 -22 -15 -29 -12 -10 -14 -24 -9 -55 5 -37
3 -44 -20 -62 -14 -12 -26 -24 -26 -28 0 -4 7 -2 15 5 9 7 18 11 21 8 2 -3 -4
-46 -16 -97 -11 -50 -20 -110 -19 -133 l1 -43 14 58 c8 32 19 66 24 75 11 17
11 13 -6 -125 l-7 -53 177 0 176 0 -30 48 c-51 83 -127 252 -167 372 l-38 115
-3 -68 c-3 -75 -16 -86 -32 -27 -12 45 0 107 19 102 8 -1 11 6 9 20 -2 13 -9
22 -17 20 -12 -3 -12 -1 -1 13 10 12 10 19 2 27 -9 9 -12 8 -12 -4z m-33 -320
c-3 -7 -5 -2 -5 12 0 14 2 19 5 13 2 -7 2 -19 0 -25z"/>
<path d="M2031 494 c0 -11 3 -14 6 -6 3 7 2 16 -1 19 -3 4 -6 -2 -5 -13z"/>
<path d="M1198 483 c-32 -5 -44 -44 -32 -101 l7 -37 6 30 c9 43 69 75 144 75
51 0 59 -3 67 -22 12 -32 13 3 0 36 -9 25 -12 26 -87 25 -43 -1 -90 -4 -105
-6z"/>
<path d="M2241 284 c0 -11 3 -14 6 -6 3 7 2 16 -1 19 -3 4 -6 -2 -5 -13z"/>
<path d="M2211 260 c0 -8 4 -22 9 -30 12 -18 12 -2 0 25 -6 13 -9 15 -9 5z"/>
<path d="M1060 175 c0 -6 57 -30 91 -39 13 -3 2 5 -26 18 -51 25 -65 30 -65
21z"/>
<path d="M1190 122 c8 -5 26 -13 40 -16 17 -5 20 -4 10 2 -8 5 -26 13 -40 16
-17 5 -20 4 -10 -2z"/>
<path d="M600 64 c0 -3 7 -18 16 -33 13 -21 25 -28 51 -29 l35 -1 -23 17 c-40
30 -79 53 -79 46z"/>
</g>
</svg>
